<svg width="183" height="32" viewBox="0 0 183 32" fill="none" xmlns="http://www.w3.org/2000/svg">
<rect width="183" height="32" rx="16" fill="url(#paint0_linear_102_278)"/>
<path fill-rule="evenodd" clip-rule="evenodd" d="M26.9167 12.0417C26.8016 12.0417 26.7083 12.1349 26.7083 12.25V21.4167C26.7083 21.5317 26.8016 21.625 26.9167 21.625H41.0833C41.1984 21.625 41.2917 21.5317 41.2917 21.4167V12.25C41.2917 12.1349 41.1984 12.0417 41.0833 12.0417H26.9167ZM25.4583 12.25C25.4583 11.4446 26.1113 10.7917 26.9167 10.7917H41.0833C41.8888 10.7917 42.5417 11.4446 42.5417 12.25V21.4167C42.5417 22.2221 41.8888 22.875 41.0833 22.875H26.9167C26.1113 22.875 25.4583 22.2221 25.4583 21.4167V12.25Z" fill="white"/>
<path fill-rule="evenodd" clip-rule="evenodd" d="M33.7917 14.3333C33.7917 13.9882 34.0715 13.7083 34.4167 13.7083H41.9167C42.2618 13.7083 42.5417 13.9882 42.5417 14.3333V18.9167C42.5417 19.2619 42.2618 19.5417 41.9167 19.5417H34.4167C34.0715 19.5417 33.7917 19.2619 33.7917 18.9167V14.3333ZM35.0417 14.9583V18.2917H41.2917V14.9583H35.0417Z" fill="white"/>
<path fill-rule="evenodd" clip-rule="evenodd" d="M41.9167 12.875C42.2618 12.875 42.5417 13.1548 42.5417 13.5V19.75C42.5417 20.0952 42.2618 20.375 41.9167 20.375C41.5715 20.375 41.2917 20.0952 41.2917 19.75V13.5C41.2917 13.1548 41.5715 12.875 41.9167 12.875Z" fill="white"/>
<path fill-rule="evenodd" clip-rule="evenodd" d="M27.2092 9.2121C27.6112 8.67889 28.2664 8.29166 29.2083 8.29166H35.25C35.6742 8.29166 36.3455 8.42707 36.9234 8.90295C37.5279 9.40076 37.9583 10.2123 37.9583 11.4167C37.9583 11.7618 37.6785 12.0417 37.3333 12.0417C36.9882 12.0417 36.7083 11.7618 36.7083 11.4167C36.7083 10.5377 36.4097 10.0992 36.1287 9.86786C35.8212 9.61458 35.4508 9.54166 35.25 9.54166H29.2083C28.6502 9.54166 28.368 9.75144 28.2074 9.96449C28.0242 10.2077 27.9583 10.5152 27.9583 10.7077V11.4167C27.9583 11.7618 27.6785 12.0417 27.3333 12.0417C26.9882 12.0417 26.7083 11.7618 26.7083 11.4167V10.7077C26.7083 10.3032 26.83 9.71521 27.2092 9.2121Z" fill="white"/>
<path d="M37.9583 17.25C38.3035 17.25 38.5833 16.9702 38.5833 16.625C38.5833 16.2798 38.3035 16 37.9583 16C37.6132 16 37.3333 16.2798 37.3333 16.625C37.3333 16.9702 37.6132 17.25 37.9583 17.25Z" fill="white"/>
<path d="M59.642 21.224C62.008 21.224 63.492 20.076 64.206 18.186L62.33 17.43C61.91 18.606 61.042 19.446 59.642 19.446C57.85 19.446 56.8 18.214 56.8 16.086C56.8 13.958 57.878 12.74 59.642 12.74C61.042 12.74 61.854 13.552 62.274 14.742L64.192 14C63.674 12.264 62.022 10.976 59.67 10.976C56.646 10.976 54.574 13.202 54.574 16.086C54.574 19.068 56.576 21.224 59.642 21.224ZM68.7404 21.224C70.8824 21.224 72.4224 19.782 72.4224 17.5C72.4224 15.26 70.8824 13.79 68.7404 13.79C66.5984 13.79 65.0584 15.26 65.0584 17.5C65.0584 19.656 66.5984 21.224 68.7404 21.224ZM68.7404 19.642C67.7884 19.642 67.1304 18.97 67.1304 17.528C67.1304 16.086 67.7884 15.358 68.7404 15.358C69.6924 15.358 70.3504 16.086 70.3504 17.528C70.3504 18.97 69.6924 19.642 68.7404 19.642ZM75.8622 21V17.682C75.8622 16.94 75.8762 15.428 77.2622 15.428C77.9482 15.428 78.3822 15.82 78.3822 16.744V21H80.3702V16.366C80.3702 14.812 79.5302 13.79 77.9902 13.79C76.8702 13.79 76.1702 14.616 75.8482 15.61H74.9802C75.3582 15.064 75.6522 14.462 75.6662 14H73.8742V21H75.8622ZM84.2157 21V17.682C84.2157 16.94 84.2297 15.428 85.6157 15.428C86.3017 15.428 86.7357 15.82 86.7357 16.744V21H88.7237V16.366C88.7237 14.812 87.8837 13.79 86.3437 13.79C85.2237 13.79 84.5237 14.616 84.2017 15.61H83.3337C83.7117 15.064 84.0057 14.462 84.0197 14H82.2277V21H84.2157ZM93.6752 21.224C95.8032 21.224 96.6852 20.076 97.0772 19.18L95.2992 18.494C95.0052 19.152 94.5712 19.712 93.6752 19.712C92.8212 19.712 92.1632 19.208 92.1072 17.976H97.0492C97.2452 15.638 96.0132 13.79 93.6612 13.79C91.6312 13.79 90.1192 15.288 90.1192 17.486C90.1192 19.782 91.5192 21.224 93.6752 21.224ZM92.1772 16.576C92.3172 15.694 92.8632 15.218 93.6612 15.218C94.5012 15.218 95.0052 15.708 95.0892 16.576H92.1772ZM101.842 21.224C103.494 21.224 104.768 20.328 105.3 18.984L103.424 18.312C103.116 19.208 102.612 19.642 101.8 19.642C100.876 19.642 100.092 18.928 100.092 17.486C100.092 16.044 100.848 15.358 101.786 15.358C102.514 15.358 103.074 15.778 103.354 16.576L105.188 15.89C104.726 14.7 103.536 13.79 101.856 13.79C99.7416 13.79 98.0896 15.232 98.0896 17.486C98.0896 19.74 99.6856 21.224 101.842 21.224ZM111.38 21V19.418H109.868C109.434 19.418 109.252 19.222 109.252 18.802V15.512H111.072V14H109.252V11.802H107.264V14H105.794V15.512H107.264V19.166C107.264 20.258 107.908 21 109.042 21H111.38ZM120.037 21L121.395 16.072C121.773 14.714 121.787 13.958 121.787 13.006H122.557C122.557 13.958 122.571 14.756 122.921 16.072L124.223 21H126.603L129.291 11.2H127.037L126.183 15.078C125.875 16.492 125.861 17.682 125.861 19.04H125.091C125.077 17.99 125.063 17.01 124.783 15.932L123.537 11.2H120.765L119.519 15.932C119.225 17.024 119.211 17.99 119.211 19.04H118.441C118.441 17.682 118.427 16.52 118.119 15.078L117.279 11.2H114.955L117.601 21H120.037ZM131.872 21.224C133.076 21.224 133.734 20.454 134.014 19.544H134.672C134.7 20.58 134.966 21 136.198 21H137.024V19.488H136.408C136.03 19.488 135.988 19.418 135.988 19.068V16.506C135.988 14.658 134.826 13.79 132.866 13.79C130.822 13.79 129.66 14.84 129.548 15.932L131.34 16.324C131.508 15.666 131.97 15.218 132.88 15.218C133.678 15.218 134.028 15.582 134.028 16.184V16.45C131.704 16.674 129.632 17.248 129.632 19.208C129.632 20.44 130.584 21.224 131.872 21.224ZM132.558 19.768C131.956 19.768 131.648 19.474 131.648 19.012C131.648 18.088 132.74 17.836 134.028 17.682V18.13C134.028 19.264 133.328 19.768 132.558 19.768ZM140.065 21V11.2H138.077V21H140.065ZM143.989 21V11.2H142.001V21H143.989ZM149.019 21.224C151.147 21.224 152.029 20.076 152.421 19.18L150.643 18.494C150.349 19.152 149.915 19.712 149.019 19.712C148.165 19.712 147.507 19.208 147.451 17.976H152.393C152.589 15.638 151.357 13.79 149.005 13.79C146.975 13.79 145.463 15.288 145.463 17.486C145.463 19.782 146.863 21.224 149.019 21.224ZM147.521 16.576C147.661 15.694 148.207 15.218 149.005 15.218C149.845 15.218 150.349 15.708 150.433 16.576H147.521ZM158.644 21V19.418H157.132C156.698 19.418 156.516 19.222 156.516 18.802V15.512H158.336V14H156.516V11.802H154.528V14H153.058V15.512H154.528V19.166C154.528 20.258 155.172 21 156.306 21H158.644Z" fill="white"/>
<defs>
<linearGradient id="paint0_linear_102_278" x1="0" y1="0" x2="184.34" y2="13.0148" gradientUnits="userSpaceOnUse">
<stop stop-color="#73E0A9"/>
<stop offset="1" stop-color="#5B68DF"/>
</linearGradient>
</defs>
</svg>
