<svg width="1440" height="96" viewBox="0 0 1440 96" fill="none" xmlns="http://www.w3.org/2000/svg">
<g filter="url(#filter0_b_27_239)">
<rect width="1440" height="96" fill="#1F1D2B" fill-opacity="0.12"/>
<path d="M725.947 47.807H720.067L719.773 49.648H726.423V52H716.658L717.456 46.75L716.658 41.5H726.353V43.852H719.773L720.067 45.693H725.947V47.807ZM730.307 47.94L727.164 43.999H730.335L732.176 46.246L734.01 43.999H737.139L733.926 47.905L737.356 52H734.115L732.113 49.578L730.139 52H726.947L730.307 47.94ZM740.832 43.999V45.532C741.224 44.9673 741.704 44.5333 742.274 44.23C742.848 43.922 743.485 43.768 744.185 43.768C744.959 43.768 745.645 43.9453 746.243 44.3C746.845 44.65 747.311 45.147 747.643 45.791C747.974 46.4303 748.14 47.1677 748.14 48.003C748.14 48.8337 747.974 49.571 747.643 50.215C747.311 50.8543 746.845 51.3513 746.243 51.706C745.645 52.056 744.959 52.231 744.185 52.231C743.485 52.231 742.848 52.0747 742.274 51.762C741.7 51.4493 741.219 51.0083 740.832 50.439V54.31H737.969V43.999H740.832ZM740.727 48.003C740.857 48.395 741.053 48.745 741.315 49.053C741.581 49.361 741.886 49.6037 742.232 49.781C742.582 49.9537 742.946 50.04 743.324 50.04C743.697 50.04 744.028 49.9537 744.318 49.781C744.612 49.6037 744.84 49.361 745.004 49.053C745.167 48.745 745.249 48.395 745.249 48.003C745.249 47.611 745.167 47.261 745.004 46.953C744.84 46.6403 744.612 46.3977 744.318 46.225C744.028 46.0477 743.697 45.959 743.324 45.959C742.946 45.959 742.582 46.0477 742.232 46.225C741.886 46.3977 741.581 46.6403 741.315 46.953C741.053 47.261 740.857 47.611 740.727 48.003ZM752.248 41.22V52H749.385V41.22H752.248ZM758.581 52.231C757.568 52.231 756.675 52.056 755.9 51.706C755.125 51.3513 754.523 50.8543 754.094 50.215C753.669 49.5757 753.457 48.8383 753.457 48.003C753.457 47.1677 753.669 46.4303 754.094 45.791C754.523 45.147 755.125 44.65 755.9 44.3C756.675 43.9453 757.568 43.768 758.581 43.768C759.594 43.768 760.487 43.9453 761.262 44.3C762.037 44.65 762.636 45.147 763.061 45.791C763.49 46.4303 763.705 47.1677 763.705 48.003C763.705 48.8383 763.49 49.5757 763.061 50.215C762.636 50.8543 762.037 51.3513 761.262 51.706C760.487 52.056 759.594 52.231 758.581 52.231ZM756.341 48.003C756.341 48.437 756.43 48.8127 756.607 49.13C756.789 49.4427 757.048 49.683 757.384 49.851C757.72 50.019 758.119 50.103 758.581 50.103C759.043 50.103 759.442 50.019 759.778 49.851C760.114 49.683 760.371 49.4427 760.548 49.13C760.725 48.8127 760.814 48.437 760.814 48.003C760.814 47.569 760.723 47.1933 760.541 46.876C760.364 46.5587 760.107 46.316 759.771 46.148C759.44 45.98 759.043 45.896 758.581 45.896C758.119 45.896 757.72 45.98 757.384 46.148C757.048 46.316 756.789 46.5587 756.607 46.876C756.43 47.1933 756.341 47.569 756.341 48.003ZM767.382 43.999L767.732 46.106C768.273 44.5473 769.232 43.768 770.609 43.768C770.917 43.768 771.246 43.8053 771.596 43.88V46.323C771.073 46.2157 770.588 46.162 770.14 46.162C769.458 46.162 768.908 46.3673 768.488 46.778C768.068 47.1887 767.858 47.8327 767.858 48.71V52H764.995V46.694L764.47 43.999H767.382ZM777.071 52.231C776.105 52.231 775.239 52.0537 774.474 51.699C773.708 51.3397 773.109 50.838 772.675 50.194C772.241 49.55 772.024 48.8103 772.024 47.975C772.024 47.1537 772.231 46.4233 772.647 45.784C773.067 45.1447 773.645 44.65 774.383 44.3C775.12 43.9453 775.951 43.768 776.875 43.768C777.813 43.768 778.625 43.9757 779.311 44.391C779.997 44.8017 780.522 45.3873 780.886 46.148C781.254 46.904 781.439 47.793 781.439 48.815H775.125C775.321 49.2397 775.652 49.5663 776.119 49.795C776.585 50.019 777.173 50.131 777.883 50.131C778.471 50.131 779.056 50.054 779.64 49.9C780.223 49.746 780.755 49.5267 781.236 49.242V51.062C780.676 51.44 780.043 51.7293 779.339 51.93C778.634 52.1307 777.878 52.231 777.071 52.231ZM778.779 47.093C778.648 46.673 778.424 46.351 778.107 46.127C777.794 45.8983 777.404 45.784 776.938 45.784C776.448 45.784 776.032 45.903 775.692 46.141C775.356 46.3743 775.125 46.6917 774.999 47.093H778.779Z" fill="white"/>
<path d="M821.384 52H818.29L817.415 49.977H811.99L811.115 52H808.014L812.795 41.5H816.61L821.384 52ZM816.407 47.646L814.699 43.712L812.998 47.646H816.407ZM831.183 48.626C831.104 49.3353 830.843 49.963 830.399 50.509C829.956 51.055 829.375 51.4797 828.656 51.783C827.938 52.0817 827.14 52.231 826.262 52.231C825.287 52.231 824.421 52.0537 823.665 51.699C822.914 51.3443 822.328 50.8473 821.908 50.208C821.493 49.564 821.285 48.829 821.285 48.003C821.285 47.177 821.493 46.4443 821.908 45.805C822.328 45.161 822.914 44.6617 823.665 44.307C824.421 43.9477 825.287 43.768 826.262 43.768C827.14 43.768 827.938 43.9197 828.656 44.223C829.375 44.5217 829.956 44.9463 830.399 45.497C830.843 46.043 831.104 46.6707 831.183 47.38H828.341C828.243 46.9087 828.008 46.5447 827.634 46.288C827.261 46.0267 826.804 45.896 826.262 45.896C825.838 45.896 825.467 45.9777 825.149 46.141C824.837 46.3043 824.594 46.5447 824.421 46.862C824.253 47.1793 824.169 47.5597 824.169 48.003C824.169 48.6703 824.356 49.1883 824.729 49.557C825.107 49.921 825.618 50.103 826.262 50.103C826.799 50.103 827.254 49.97 827.627 49.704C828.005 49.4333 828.243 49.074 828.341 48.626H831.183ZM831.497 44.867L833.128 44.216L834.36 41.85H835.984V43.999H839.351V46.113H835.984V48.479C835.984 48.871 836.033 49.179 836.131 49.403C836.234 49.627 836.402 49.788 836.635 49.886C836.868 49.984 837.195 50.033 837.615 50.033C837.988 50.033 838.324 50.0027 838.623 49.942C838.926 49.8767 839.216 49.7857 839.491 49.669V51.811C839.174 51.9277 838.789 52.0257 838.336 52.105C837.883 52.189 837.426 52.231 836.964 52.231C835.671 52.231 834.708 51.937 834.073 51.349C833.443 50.7563 833.128 49.928 833.128 48.864V46.113H831.497V44.867ZM842.074 44.16L843.509 43.88V52H840.646V43.88L842.074 44.16ZM840.408 41.836C840.408 41.556 840.476 41.3133 840.611 41.108C840.751 40.898 840.947 40.737 841.199 40.625C841.451 40.5083 841.743 40.45 842.074 40.45C842.406 40.45 842.697 40.5083 842.949 40.625C843.201 40.737 843.397 40.898 843.537 41.108C843.677 41.3133 843.747 41.556 843.747 41.836C843.747 42.116 843.677 42.361 843.537 42.571C843.397 42.781 843.201 42.9443 842.949 43.061C842.697 43.173 842.406 43.229 842.074 43.229C841.743 43.229 841.451 43.173 841.199 43.061C840.947 42.9443 840.751 42.781 840.611 42.571C840.476 42.361 840.408 42.116 840.408 41.836ZM847.47 43.999L849.724 49.466L851.999 43.999H855.051L851.313 52H848.058L844.32 43.999H847.47ZM857.278 44.16L858.713 43.88V52H855.85V43.88L857.278 44.16ZM855.612 41.836C855.612 41.556 855.679 41.3133 855.815 41.108C855.955 40.898 856.151 40.737 856.403 40.625C856.655 40.5083 856.946 40.45 857.278 40.45C857.609 40.45 857.901 40.5083 858.153 40.625C858.405 40.737 858.601 40.898 858.741 41.108C858.881 41.3133 858.951 41.556 858.951 41.836C858.951 42.116 858.881 42.361 858.741 42.571C858.601 42.781 858.405 42.9443 858.153 43.061C857.901 43.173 857.609 43.229 857.278 43.229C856.946 43.229 856.655 43.173 856.403 43.061C856.151 42.9443 855.955 42.781 855.815 42.571C855.679 42.361 855.612 42.116 855.612 41.836ZM859.579 44.867L861.21 44.216L862.442 41.85H864.066V43.999H867.433V46.113H864.066V48.479C864.066 48.871 864.115 49.179 864.213 49.403C864.316 49.627 864.484 49.788 864.717 49.886C864.95 49.984 865.277 50.033 865.697 50.033C866.07 50.033 866.406 50.0027 866.705 49.942C867.008 49.8767 867.298 49.7857 867.573 49.669V51.811C867.256 51.9277 866.871 52.0257 866.418 52.105C865.965 52.189 865.508 52.231 865.046 52.231C863.753 52.231 862.79 51.937 862.155 51.349C861.525 50.7563 861.21 49.928 861.21 48.864V46.113H859.579V44.867ZM871.217 54.541C870.633 54.541 870.111 54.4687 869.649 54.324C869.191 54.184 868.746 53.9577 868.312 53.645V51.664C868.755 51.944 869.168 52.1447 869.551 52.266C869.933 52.3873 870.353 52.448 870.811 52.448C871.226 52.448 871.576 52.3593 871.861 52.182C872.145 52.0047 872.379 51.7013 872.561 51.272L872.568 51.251H871.315L867.913 43.999H871.07L873.324 49.459L875.627 43.999H878.672L874.829 52.154C874.437 52.9893 873.926 53.596 873.296 53.974C872.666 54.352 871.973 54.541 871.217 54.541Z" fill="white"/>
<path d="M908.811 46.092C909.268 46.092 909.628 45.9847 909.889 45.77C910.15 45.5553 910.281 45.2567 910.281 44.874C910.281 44.4913 910.15 44.1927 909.889 43.978C909.632 43.7633 909.273 43.656 908.811 43.656H905.878V46.092H908.811ZM902.973 41.5H909.21C910.003 41.5 910.701 41.64 911.303 41.92C911.91 42.2 912.379 42.5967 912.71 43.11C913.046 43.6187 913.214 44.2067 913.214 44.874C913.214 45.4013 913.107 45.882 912.892 46.316C912.677 46.7453 912.369 47.1093 911.968 47.408C911.571 47.7067 911.102 47.9237 910.561 48.059L913.578 52H910.211L907.397 48.22H905.878V52H902.973V41.5ZM918.979 52.231C918.013 52.231 917.147 52.0537 916.382 51.699C915.616 51.3397 915.017 50.838 914.583 50.194C914.149 49.55 913.932 48.8103 913.932 47.975C913.932 47.1537 914.139 46.4233 914.555 45.784C914.975 45.1447 915.553 44.65 916.291 44.3C917.028 43.9453 917.859 43.768 918.783 43.768C919.721 43.768 920.533 43.9757 921.219 44.391C921.905 44.8017 922.43 45.3873 922.794 46.148C923.162 46.904 923.347 47.793 923.347 48.815H917.033C917.229 49.2397 917.56 49.5663 918.027 49.795C918.493 50.019 919.081 50.131 919.791 50.131C920.379 50.131 920.964 50.054 921.548 49.9C922.131 49.746 922.663 49.5267 923.144 49.242V51.062C922.584 51.44 921.951 51.7293 921.247 51.93C920.542 52.1307 919.786 52.231 918.979 52.231ZM920.687 47.093C920.556 46.673 920.332 46.351 920.015 46.127C919.702 45.8983 919.312 45.784 918.846 45.784C918.356 45.784 917.94 45.903 917.6 46.141C917.264 46.3743 917.033 46.6917 916.907 47.093H920.687ZM933.845 49.389C933.845 50.0003 933.658 50.5183 933.285 50.943C932.916 51.3677 932.384 51.6897 931.689 51.909C930.994 52.1237 930.163 52.231 929.197 52.231C928.208 52.231 927.335 52.1097 926.579 51.867C925.828 51.6243 925.24 51.2837 924.815 50.845C924.39 50.4017 924.164 49.8907 924.136 49.312H927.041C927.134 49.6387 927.375 49.8907 927.762 50.068C928.154 50.2453 928.672 50.334 929.316 50.334C929.89 50.334 930.322 50.278 930.611 50.166C930.905 50.054 931.052 49.8883 931.052 49.669C931.052 49.543 931.003 49.4427 930.905 49.368C930.812 49.2887 930.658 49.2257 930.443 49.179C930.233 49.1277 929.944 49.088 929.575 49.06L928.161 48.955C926.794 48.8523 925.818 48.5933 925.235 48.178C924.652 47.7627 924.36 47.1933 924.36 46.47C924.36 45.882 924.544 45.3873 924.913 44.986C925.286 44.58 925.811 44.2767 926.488 44.076C927.165 43.8707 927.958 43.768 928.868 43.768C929.755 43.768 930.55 43.8847 931.255 44.118C931.964 44.3513 932.529 44.678 932.949 45.098C933.374 45.518 933.616 46.001 933.677 46.547H930.772C930.697 46.267 930.492 46.036 930.156 45.854C929.82 45.672 929.346 45.581 928.735 45.581C928.226 45.581 927.837 45.637 927.566 45.749C927.3 45.8563 927.167 46.0103 927.167 46.211C927.167 46.3837 927.251 46.5143 927.419 46.603C927.587 46.6917 927.893 46.7523 928.336 46.785L930.191 46.925C931.096 46.9903 931.817 47.1257 932.354 47.331C932.891 47.5363 933.273 47.8093 933.502 48.15C933.731 48.486 933.845 48.899 933.845 49.389ZM939.81 52.231C938.797 52.231 937.903 52.056 937.129 51.706C936.354 51.3513 935.752 50.8543 935.323 50.215C934.898 49.5757 934.686 48.8383 934.686 48.003C934.686 47.1677 934.898 46.4303 935.323 45.791C935.752 45.147 936.354 44.65 937.129 44.3C937.903 43.9453 938.797 43.768 939.81 43.768C940.822 43.768 941.716 43.9453 942.491 44.3C943.265 44.65 943.865 45.147 944.29 45.791C944.719 46.4303 944.934 47.1677 944.934 48.003C944.934 48.8383 944.719 49.5757 944.29 50.215C943.865 50.8543 943.265 51.3513 942.491 51.706C941.716 52.056 940.822 52.231 939.81 52.231ZM937.57 48.003C937.57 48.437 937.658 48.8127 937.836 49.13C938.018 49.4427 938.277 49.683 938.613 49.851C938.949 50.019 939.348 50.103 939.81 50.103C940.272 50.103 940.671 50.019 941.007 49.851C941.343 49.683 941.599 49.4427 941.777 49.13C941.954 48.8127 942.043 48.437 942.043 48.003C942.043 47.569 941.952 47.1933 941.77 46.876C941.592 46.5587 941.336 46.316 941 46.148C940.668 45.98 940.272 45.896 939.81 45.896C939.348 45.896 938.949 45.98 938.613 46.148C938.277 46.316 938.018 46.5587 937.836 46.876C937.658 47.1933 937.57 47.569 937.57 48.003ZM949.568 52.224C948.831 52.224 948.196 52.0723 947.664 51.769C947.132 51.461 946.726 51.0247 946.446 50.46C946.166 49.8953 946.026 49.2327 946.026 48.472V43.999H948.889V48.059C948.889 48.6517 949.031 49.1067 949.316 49.424C949.605 49.7367 950.018 49.893 950.555 49.893C951.148 49.893 951.605 49.7157 951.927 49.361C952.254 49.0017 952.417 48.4977 952.417 47.849V43.999H955.28V49.242L955.798 52H952.942L952.669 50.348C952.328 50.9593 951.89 51.426 951.353 51.748C950.816 52.0653 950.221 52.224 949.568 52.224ZM959.548 43.999L959.898 46.106C960.439 44.5473 961.398 43.768 962.775 43.768C963.083 43.768 963.412 43.8053 963.762 43.88V46.323C963.239 46.2157 962.754 46.162 962.306 46.162C961.624 46.162 961.074 46.3673 960.654 46.778C960.234 47.1887 960.024 47.8327 960.024 48.71V52H957.161V46.694L956.636 43.999H959.548ZM974.088 48.626C974.008 49.3353 973.747 49.963 973.304 50.509C972.86 51.055 972.279 51.4797 971.561 51.783C970.842 52.0817 970.044 52.231 969.167 52.231C968.191 52.231 967.326 52.0537 966.57 51.699C965.818 51.3443 965.233 50.8473 964.813 50.208C964.397 49.564 964.19 48.829 964.19 48.003C964.19 47.177 964.397 46.4443 964.813 45.805C965.233 45.161 965.818 44.6617 966.57 44.307C967.326 43.9477 968.191 43.768 969.167 43.768C970.044 43.768 970.842 43.9197 971.561 44.223C972.279 44.5217 972.86 44.9463 973.304 45.497C973.747 46.043 974.008 46.6707 974.088 47.38H971.246C971.148 46.9087 970.912 46.5447 970.539 46.288C970.165 46.0267 969.708 45.896 969.167 45.896C968.742 45.896 968.371 45.9777 968.054 46.141C967.741 46.3043 967.498 46.5447 967.326 46.862C967.158 47.1793 967.074 47.5597 967.074 48.003C967.074 48.6703 967.26 49.1883 967.634 49.557C968.012 49.921 968.523 50.103 969.167 50.103C969.703 50.103 970.158 49.97 970.532 49.704C970.91 49.4333 971.148 49.074 971.246 48.626H974.088ZM979.901 52.231C978.935 52.231 978.069 52.0537 977.304 51.699C976.538 51.3397 975.939 50.838 975.505 50.194C975.071 49.55 974.854 48.8103 974.854 47.975C974.854 47.1537 975.061 46.4233 975.477 45.784C975.897 45.1447 976.475 44.65 977.213 44.3C977.95 43.9453 978.781 43.768 979.705 43.768C980.643 43.768 981.455 43.9757 982.141 44.391C982.827 44.8017 983.352 45.3873 983.716 46.148C984.084 46.904 984.269 47.793 984.269 48.815H977.955C978.151 49.2397 978.482 49.5663 978.949 49.795C979.415 50.019 980.003 50.131 980.713 50.131C981.301 50.131 981.886 50.054 982.47 49.9C983.053 49.746 983.585 49.5267 984.066 49.242V51.062C983.506 51.44 982.873 51.7293 982.169 51.93C981.464 52.1307 980.708 52.231 979.901 52.231ZM981.609 47.093C981.478 46.673 981.254 46.351 980.937 46.127C980.624 45.8983 980.234 45.784 979.768 45.784C979.278 45.784 978.862 45.903 978.522 46.141C978.186 46.3743 977.955 46.6917 977.829 47.093H981.609ZM994.767 49.389C994.767 50.0003 994.58 50.5183 994.207 50.943C993.838 51.3677 993.306 51.6897 992.611 51.909C991.916 52.1237 991.085 52.231 990.119 52.231C989.13 52.231 988.257 52.1097 987.501 51.867C986.75 51.6243 986.162 51.2837 985.737 50.845C985.312 50.4017 985.086 49.8907 985.058 49.312H987.963C988.056 49.6387 988.297 49.8907 988.684 50.068C989.076 50.2453 989.594 50.334 990.238 50.334C990.812 50.334 991.244 50.278 991.533 50.166C991.827 50.054 991.974 49.8883 991.974 49.669C991.974 49.543 991.925 49.4427 991.827 49.368C991.734 49.2887 991.58 49.2257 991.365 49.179C991.155 49.1277 990.866 49.088 990.497 49.06L989.083 48.955C987.716 48.8523 986.74 48.5933 986.157 48.178C985.574 47.7627 985.282 47.1933 985.282 46.47C985.282 45.882 985.466 45.3873 985.835 44.986C986.208 44.58 986.733 44.2767 987.41 44.076C988.087 43.8707 988.88 43.768 989.79 43.768C990.677 43.768 991.472 43.8847 992.177 44.118C992.886 44.3513 993.451 44.678 993.871 45.098C994.296 45.518 994.538 46.001 994.599 46.547H991.694C991.619 46.267 991.414 46.036 991.078 45.854C990.742 45.672 990.268 45.581 989.657 45.581C989.148 45.581 988.759 45.637 988.488 45.749C988.222 45.8563 988.089 46.0103 988.089 46.211C988.089 46.3837 988.173 46.5143 988.341 46.603C988.509 46.6917 988.815 46.7523 989.258 46.785L991.113 46.925C992.018 46.9903 992.739 47.1257 993.276 47.331C993.813 47.5363 994.195 47.8093 994.424 48.15C994.653 48.486 994.767 48.899 994.767 49.389Z" fill="white"/>
<rect x="1160" y="32" width="214" height="32" rx="16" fill="url(#paint0_linear_27_239)"/>
<path fill-rule="evenodd" clip-rule="evenodd" d="M1186.92 44.0417C1186.8 44.0417 1186.71 44.1349 1186.71 44.25V53.4167C1186.71 53.5317 1186.8 53.625 1186.92 53.625H1201.08C1201.2 53.625 1201.29 53.5317 1201.29 53.4167V44.25C1201.29 44.1349 1201.2 44.0417 1201.08 44.0417H1186.92ZM1185.46 44.25C1185.46 43.4446 1186.11 42.7917 1186.92 42.7917H1201.08C1201.89 42.7917 1202.54 43.4446 1202.54 44.25V53.4167C1202.54 54.2221 1201.89 54.875 1201.08 54.875H1186.92C1186.11 54.875 1185.46 54.2221 1185.46 53.4167V44.25Z" fill="white"/>
<path fill-rule="evenodd" clip-rule="evenodd" d="M1193.79 46.3333C1193.79 45.9882 1194.07 45.7083 1194.42 45.7083H1201.92C1202.26 45.7083 1202.54 45.9882 1202.54 46.3333V50.9167C1202.54 51.2619 1202.26 51.5417 1201.92 51.5417H1194.42C1194.07 51.5417 1193.79 51.2619 1193.79 50.9167V46.3333ZM1195.04 46.9583V50.2917H1201.29V46.9583H1195.04Z" fill="white"/>
<path fill-rule="evenodd" clip-rule="evenodd" d="M1201.92 44.875C1202.26 44.875 1202.54 45.1548 1202.54 45.5V51.75C1202.54 52.0952 1202.26 52.375 1201.92 52.375C1201.57 52.375 1201.29 52.0952 1201.29 51.75V45.5C1201.29 45.1548 1201.57 44.875 1201.92 44.875Z" fill="white"/>
<path fill-rule="evenodd" clip-rule="evenodd" d="M1187.21 41.2121C1187.61 40.6789 1188.27 40.2917 1189.21 40.2917H1195.25C1195.67 40.2917 1196.35 40.4271 1196.92 40.903C1197.53 41.4008 1197.96 42.2123 1197.96 43.4167C1197.96 43.7618 1197.68 44.0417 1197.33 44.0417C1196.99 44.0417 1196.71 43.7618 1196.71 43.4167C1196.71 42.5377 1196.41 42.0992 1196.13 41.8679C1195.82 41.6146 1195.45 41.5417 1195.25 41.5417H1189.21C1188.65 41.5417 1188.37 41.7514 1188.21 41.9645C1188.02 42.2077 1187.96 42.5152 1187.96 42.7077V43.4167C1187.96 43.7618 1187.68 44.0417 1187.33 44.0417C1186.99 44.0417 1186.71 43.7618 1186.71 43.4167V42.7077C1186.71 42.3032 1186.83 41.7152 1187.21 41.2121Z" fill="white"/>
<path d="M1197.96 49.25C1198.3 49.25 1198.58 48.9702 1198.58 48.625C1198.58 48.2798 1198.3 48 1197.96 48C1197.61 48 1197.33 48.2798 1197.33 48.625C1197.33 48.9702 1197.61 49.25 1197.96 49.25Z" fill="white"/>
<path d="M1226.64 49.104C1226.54 50.0233 1226.22 50.833 1225.69 51.533C1225.16 52.2283 1224.46 52.7697 1223.58 53.157C1222.71 53.5397 1221.72 53.731 1220.62 53.731C1219.41 53.731 1218.35 53.5023 1217.42 53.045C1216.5 52.5877 1215.78 51.946 1215.27 51.12C1214.77 50.2893 1214.52 49.3327 1214.52 48.25C1214.52 47.1673 1214.77 46.213 1215.27 45.387C1215.78 44.5563 1216.5 43.9123 1217.42 43.455C1218.35 42.9977 1219.41 42.769 1220.62 42.769C1221.72 42.769 1222.71 42.9627 1223.58 43.35C1224.46 43.7327 1225.16 44.274 1225.69 44.974C1226.22 45.6693 1226.54 46.4767 1226.64 47.396H1223.72C1223.58 46.7333 1223.24 46.2153 1222.71 45.842C1222.17 45.4687 1221.47 45.282 1220.62 45.282C1219.97 45.282 1219.4 45.4033 1218.93 45.646C1218.46 45.884 1218.09 46.227 1217.84 46.675C1217.58 47.1183 1217.46 47.6433 1217.46 48.25C1217.46 48.8567 1217.58 49.384 1217.84 49.832C1218.09 50.2753 1218.46 50.6183 1218.93 50.861C1219.4 51.099 1219.97 51.218 1220.62 51.218C1221.48 51.218 1222.18 51.0383 1222.72 50.679C1223.25 50.315 1223.59 49.79 1223.72 49.104H1226.64ZM1232.57 53.731C1231.56 53.731 1230.67 53.556 1229.89 53.206C1229.12 52.8513 1228.52 52.3543 1228.09 51.715C1227.66 51.0757 1227.45 50.3383 1227.45 49.503C1227.45 48.6677 1227.66 47.9303 1228.09 47.291C1228.52 46.647 1229.12 46.15 1229.89 45.8C1230.67 45.4453 1231.56 45.268 1232.57 45.268C1233.59 45.268 1234.48 45.4453 1235.25 45.8C1236.03 46.15 1236.63 46.647 1237.05 47.291C1237.48 47.9303 1237.7 48.6677 1237.7 49.503C1237.7 50.3383 1237.48 51.0757 1237.05 51.715C1236.63 52.3543 1236.03 52.8513 1235.25 53.206C1234.48 53.556 1233.59 53.731 1232.57 53.731ZM1230.33 49.503C1230.33 49.937 1230.42 50.3127 1230.6 50.63C1230.78 50.9427 1231.04 51.183 1231.38 51.351C1231.71 51.519 1232.11 51.603 1232.57 51.603C1233.04 51.603 1233.43 51.519 1233.77 51.351C1234.11 51.183 1234.36 50.9427 1234.54 50.63C1234.72 50.3127 1234.81 49.937 1234.81 49.503C1234.81 49.069 1234.72 48.6933 1234.53 48.376C1234.36 48.0587 1234.1 47.816 1233.76 47.648C1233.43 47.48 1233.04 47.396 1232.57 47.396C1232.11 47.396 1231.71 47.48 1231.38 47.648C1231.04 47.816 1230.78 48.0587 1230.6 48.376C1230.42 48.6933 1230.33 49.069 1230.33 49.503ZM1241.32 45.499L1241.6 47.165C1241.94 46.549 1242.39 46.08 1242.94 45.758C1243.5 45.4313 1244.11 45.268 1244.78 45.268C1245.54 45.268 1246.19 45.422 1246.74 45.73C1247.28 46.0333 1247.7 46.4673 1247.98 47.032C1248.27 47.5967 1248.41 48.2617 1248.41 49.027V53.5H1245.55V49.447C1245.55 48.8497 1245.4 48.3923 1245.1 48.075C1244.79 47.7577 1244.36 47.599 1243.79 47.599C1243.39 47.599 1243.05 47.683 1242.75 47.851C1242.46 48.0143 1242.24 48.2523 1242.08 48.565C1241.93 48.873 1241.85 49.2347 1241.85 49.65V53.5H1238.99V48.264L1238.46 45.499H1241.32ZM1252.34 45.499L1252.62 47.165C1252.96 46.549 1253.41 46.08 1253.96 45.758C1254.52 45.4313 1255.13 45.268 1255.8 45.268C1256.56 45.268 1257.21 45.422 1257.76 45.73C1258.3 46.0333 1258.72 46.4673 1259 47.032C1259.29 47.5967 1259.43 48.2617 1259.43 49.027V53.5H1256.57V49.447C1256.57 48.8497 1256.42 48.3923 1256.12 48.075C1255.81 47.7577 1255.38 47.599 1254.81 47.599C1254.41 47.599 1254.07 47.683 1253.77 47.851C1253.48 48.0143 1253.26 48.2523 1253.1 48.565C1252.95 48.873 1252.87 49.2347 1252.87 49.65V53.5H1250.01V48.264L1249.48 45.499H1252.34ZM1265.58 53.731C1264.62 53.731 1263.75 53.5537 1262.99 53.199C1262.22 52.8397 1261.62 52.338 1261.19 51.694C1260.75 51.05 1260.54 50.3103 1260.54 49.475C1260.54 48.6537 1260.74 47.9233 1261.16 47.284C1261.58 46.6447 1262.16 46.15 1262.89 45.8C1263.63 45.4453 1264.46 45.268 1265.39 45.268C1266.32 45.268 1267.14 45.4757 1267.82 45.891C1268.51 46.3017 1269.03 46.8873 1269.4 47.648C1269.77 48.404 1269.95 49.293 1269.95 50.315H1263.64C1263.83 50.7397 1264.16 51.0663 1264.63 51.295C1265.1 51.519 1265.68 51.631 1266.39 51.631C1266.98 51.631 1267.57 51.554 1268.15 51.4C1268.73 51.246 1269.27 51.0267 1269.75 50.742V52.562C1269.19 52.94 1268.55 53.2293 1267.85 53.43C1267.15 53.6307 1266.39 53.731 1265.58 53.731ZM1267.29 48.593C1267.16 48.173 1266.94 47.851 1266.62 47.627C1266.31 47.3983 1265.92 47.284 1265.45 47.284C1264.96 47.284 1264.54 47.403 1264.2 47.641C1263.87 47.8743 1263.64 48.1917 1263.51 48.593H1267.29ZM1280.71 50.126C1280.64 50.8353 1280.37 51.463 1279.93 52.009C1279.49 52.555 1278.91 52.9797 1278.19 53.283C1277.47 53.5817 1276.67 53.731 1275.79 53.731C1274.82 53.731 1273.95 53.5537 1273.2 53.199C1272.45 52.8443 1271.86 52.3473 1271.44 51.708C1271.02 51.064 1270.82 50.329 1270.82 49.503C1270.82 48.677 1271.02 47.9443 1271.44 47.305C1271.86 46.661 1272.45 46.1617 1273.2 45.807C1273.95 45.4477 1274.82 45.268 1275.79 45.268C1276.67 45.268 1277.47 45.4197 1278.19 45.723C1278.91 46.0217 1279.49 46.4463 1279.93 46.997C1280.37 47.543 1280.64 48.1707 1280.71 48.88H1277.87C1277.77 48.4087 1277.54 48.0447 1277.17 47.788C1276.79 47.5267 1276.33 47.396 1275.79 47.396C1275.37 47.396 1275 47.4777 1274.68 47.641C1274.37 47.8043 1274.13 48.0447 1273.95 48.362C1273.78 48.6793 1273.7 49.0597 1273.7 49.503C1273.7 50.1703 1273.89 50.6883 1274.26 51.057C1274.64 51.421 1275.15 51.603 1275.79 51.603C1276.33 51.603 1276.79 51.47 1277.16 51.204C1277.54 50.9333 1277.77 50.574 1277.87 50.126H1280.71ZM1281.03 46.367L1282.66 45.716L1283.89 43.35H1285.52V45.499H1288.88V47.613H1285.52V49.979C1285.52 50.371 1285.56 50.679 1285.66 50.903C1285.76 51.127 1285.93 51.288 1286.17 51.386C1286.4 51.484 1286.73 51.533 1287.15 51.533C1287.52 51.533 1287.86 51.5027 1288.15 51.442C1288.46 51.3767 1288.75 51.2857 1289.02 51.169V53.311C1288.7 53.4277 1288.32 53.5257 1287.87 53.605C1287.41 53.689 1286.96 53.731 1286.5 53.731C1285.2 53.731 1284.24 53.437 1283.6 52.849C1282.97 52.2563 1282.66 51.428 1282.66 50.364V47.613H1281.03V46.367ZM1295.73 43L1297.92 50.777L1300.5 43H1303.56L1306.14 50.784L1308.34 43H1311.4L1308.21 53.5H1304.48L1302.03 46.283L1299.57 53.5H1295.84L1292.65 43H1295.73ZM1318.53 51.883C1318.14 52.471 1317.66 52.926 1317.08 53.248C1316.5 53.57 1315.85 53.731 1315.14 53.731C1314.36 53.731 1313.68 53.556 1313.07 53.206C1312.48 52.8513 1312.01 52.3543 1311.68 51.715C1311.35 51.071 1311.18 50.3337 1311.18 49.503C1311.18 48.6677 1311.35 47.9303 1311.68 47.291C1312.01 46.647 1312.48 46.15 1313.07 45.8C1313.68 45.4453 1314.36 45.268 1315.14 45.268C1315.85 45.268 1316.49 45.4267 1317.08 45.744C1317.66 46.0613 1318.15 46.5117 1318.53 47.095L1318.74 45.499H1321.7L1321.2 49.496L1321.7 53.5H1318.74L1318.53 51.883ZM1314.07 49.503C1314.07 49.895 1314.16 50.245 1314.32 50.553C1314.48 50.861 1314.71 51.1037 1315 51.281C1315.29 51.4537 1315.63 51.54 1316 51.54C1316.38 51.54 1316.74 51.4537 1317.08 51.281C1317.43 51.1037 1317.74 50.861 1318 50.553C1318.27 50.245 1318.47 49.895 1318.6 49.503C1318.47 49.111 1318.27 48.761 1318 48.453C1317.74 48.1403 1317.43 47.8977 1317.08 47.725C1316.74 47.5477 1316.38 47.459 1316 47.459C1315.63 47.459 1315.29 47.5477 1315 47.725C1314.71 47.8977 1314.48 48.1403 1314.32 48.453C1314.16 48.761 1314.07 49.111 1314.07 49.503ZM1325.95 42.72V53.5H1323.09V42.72H1325.95ZM1330.39 42.72V53.5H1327.53V42.72H1330.39ZM1336.65 53.731C1335.68 53.731 1334.82 53.5537 1334.05 53.199C1333.29 52.8397 1332.69 52.338 1332.25 51.694C1331.82 51.05 1331.6 50.3103 1331.6 49.475C1331.6 48.6537 1331.81 47.9233 1332.22 47.284C1332.64 46.6447 1333.22 46.15 1333.96 45.8C1334.7 45.4453 1335.53 45.268 1336.45 45.268C1337.39 45.268 1338.2 45.4757 1338.89 45.891C1339.57 46.3017 1340.1 46.8873 1340.46 47.648C1340.83 48.404 1341.02 49.293 1341.02 50.315H1334.7C1334.9 50.7397 1335.23 51.0663 1335.7 51.295C1336.16 51.519 1336.75 51.631 1337.46 51.631C1338.05 51.631 1338.63 51.554 1339.22 51.4C1339.8 51.246 1340.33 51.0267 1340.81 50.742V52.562C1340.25 52.94 1339.62 53.2293 1338.92 53.43C1338.21 53.6307 1337.46 53.731 1336.65 53.731ZM1338.36 48.593C1338.23 48.173 1338 47.851 1337.68 47.627C1337.37 47.3983 1336.98 47.284 1336.52 47.284C1336.03 47.284 1335.61 47.403 1335.27 47.641C1334.93 47.8743 1334.7 48.1917 1334.58 48.593H1338.36ZM1341.38 46.367L1343.01 45.716L1344.24 43.35H1345.86V45.499H1349.23V47.613H1345.86V49.979C1345.86 50.371 1345.91 50.679 1346.01 50.903C1346.11 51.127 1346.28 51.288 1346.51 51.386C1346.75 51.484 1347.07 51.533 1347.49 51.533C1347.87 51.533 1348.2 51.5027 1348.5 51.442C1348.81 51.3767 1349.09 51.2857 1349.37 51.169V53.311C1349.05 53.4277 1348.67 53.5257 1348.21 53.605C1347.76 53.689 1347.3 53.731 1346.84 53.731C1345.55 53.731 1344.59 53.437 1343.95 52.849C1343.32 52.2563 1343.01 51.428 1343.01 50.364V47.613H1341.38V46.367Z" fill="white"/>
<path d="M107.14 39.7533L113.02 39.0533L113.953 32.1933H115.54V38.8667H128.887V41.1533H115.54V56.3667C115.54 58.8244 116.092 60.5744 117.197 61.6167C118.301 62.6589 120.004 63.18 122.307 63.18C123.707 63.18 124.967 62.9933 126.087 62.62C127.207 62.2467 128.311 61.6711 129.4 60.8933V63.5067C128.669 64.0356 127.58 64.51 126.133 64.93C124.702 65.35 123.271 65.56 121.84 65.56C118.744 65.56 116.497 64.7667 115.097 63.18C113.712 61.5933 113.02 59.4622 113.02 56.7867V41.1533H107.14V39.7533Z" fill="url(#paint1_linear_27_239)"/>
<path d="M143.86 56.2467L137.98 56.9467L137.047 63.8067L135.46 63.8067L135.46 57.1333L122.113 57.1333L122.113 54.8467L135.46 54.8467L135.46 39.6333C135.46 37.1756 134.908 35.4256 133.803 34.3833C132.699 33.3411 130.996 32.82 128.693 32.82C127.293 32.82 126.033 33.0067 124.913 33.38C123.793 33.7533 122.689 34.3289 121.6 35.1067L121.6 32.4933C122.331 31.9644 123.42 31.49 124.867 31.07C126.298 30.65 127.729 30.44 129.16 30.44C132.256 30.44 134.503 31.2333 135.903 32.82C137.288 34.4067 137.98 36.5378 137.98 39.2133L137.98 54.8467L143.86 54.8467L143.86 56.2467Z" fill="url(#paint2_linear_27_239)"/>
</g>
<defs>
<filter id="filter0_b_27_239" x="-45" y="-45" width="1530" height="186" filterUnits="userSpaceOnUse" color-interpolation-filters="sRGB">
<feFlood flood-opacity="0" result="BackgroundImageFix"/>
<feGaussianBlur in="BackgroundImageFix" stdDeviation="22.5"/>
<feComposite in2="SourceAlpha" operator="in" result="effect1_backgroundBlur_27_239"/>
<feBlend mode="normal" in="SourceGraphic" in2="effect1_backgroundBlur_27_239" result="shape"/>
</filter>
<linearGradient id="paint0_linear_27_239" x1="1160" y1="32" x2="1375.18" y2="49.7652" gradientUnits="userSpaceOnUse">
<stop stop-color="#73E0A9"/>
<stop offset="1" stop-color="#5B68DF"/>
</linearGradient>
<linearGradient id="paint1_linear_27_239" x1="107" y1="30" x2="128.865" y2="30.162" gradientUnits="userSpaceOnUse">
<stop stop-color="#73E0A9"/>
<stop offset="1" stop-color="#5B68DF"/>
</linearGradient>
<linearGradient id="paint2_linear_27_239" x1="144" y1="66" x2="122.135" y2="65.838" gradientUnits="userSpaceOnUse">
<stop stop-color="#73E0A9"/>
<stop offset="1" stop-color="#5B68DF"/>
</linearGradient>
</defs>
</svg>
