<svg width="64" height="64" viewBox="0 0 64 64" fill="none" xmlns="http://www.w3.org/2000/svg">
<path fill-rule="evenodd" clip-rule="evenodd" d="M6 12C6 8.6863 8.6863 6 12 6H52C55.3138 6 58 8.68632 58 12V52C58 55.3138 55.3138 58 52 58H12C8.68632 58 6 55.3138 6 52V12ZM12 10C10.8954 10 10 10.8954 10 12V52C10 53.1046 10.8954 54 12 54H52C53.1046 54 54 53.1046 54 52V12C54 10.8954 53.1046 10 52 10H12Z" fill="url(#paint0_linear_29_263)"/>
<path fill-rule="evenodd" clip-rule="evenodd" d="M15.3333 24C15.3333 19.2135 19.2135 15.3333 23.9999 15.3333C28.7864 15.3333 32.6666 19.2135 32.6666 24C32.6666 28.7864 28.7864 32.6666 23.9999 32.6666C19.2135 32.6666 15.3333 28.7864 15.3333 24ZM23.9999 19.3333C21.4226 19.3333 19.3333 21.4227 19.3333 24C19.3333 26.5773 21.4226 28.6666 23.9999 28.6666C26.5772 28.6666 28.6666 26.5773 28.6666 24C28.6666 21.4227 26.5772 19.3333 23.9999 19.3333Z" fill="url(#paint1_linear_29_263)"/>
<path fill-rule="evenodd" clip-rule="evenodd" d="M38.6556 36.1561C38.6556 36.1561 38.6556 36.1561 38.6556 36.1562L25.3241 54H50.8894C51.4282 54 51.7445 53.394 51.4363 52.952C51.4363 52.9519 51.4363 52.9519 51.4363 52.9519L39.7366 36.1738C39.4766 35.801 38.9278 35.7919 38.6556 36.1561ZM35.4512 33.7619C37.3559 31.2129 41.1974 31.2755 43.0176 33.8859L43.0177 33.8859L54.7174 50.664L54.7174 50.6641C56.8746 53.7578 54.661 58 50.8894 58H21.3333C20.5764 58 19.8843 57.5727 19.5452 56.8961C19.2061 56.2194 19.278 55.4093 19.7311 54.8029L35.4512 33.762L35.4512 33.7619Z" fill="url(#paint2_linear_29_263)"/>
<defs>
<linearGradient id="paint0_linear_29_263" x1="6" y1="6" x2="58.634" y2="6.6498" gradientUnits="userSpaceOnUse">
<stop stop-color="#73E0A9"/>
<stop offset="1" stop-color="#5B68DF"/>
</linearGradient>
<linearGradient id="paint1_linear_29_263" x1="15.3333" y1="15.3333" x2="32.8779" y2="15.5499" gradientUnits="userSpaceOnUse">
<stop stop-color="#73E0A9"/>
<stop offset="1" stop-color="#5B68DF"/>
</linearGradient>
<linearGradient id="paint2_linear_29_263" x1="19.3333" y1="31.8885" x2="56.0007" y2="32.5166" gradientUnits="userSpaceOnUse">
<stop stop-color="#73E0A9"/>
<stop offset="1" stop-color="#5B68DF"/>
</linearGradient>
</defs>
</svg>
