<svg width="64" height="64" viewBox="0 0 64 64" fill="none" xmlns="http://www.w3.org/2000/svg">
<path fill-rule="evenodd" clip-rule="evenodd" d="M5.14396 21.3701C5.52395 20.9238 6.0806 20.6667 6.66676 20.6667H57.3334C57.9196 20.6667 58.4762 20.9238 58.8562 21.3701C59.2362 21.8164 59.4013 22.407 59.3078 22.9856L53.7078 57.6523C53.5513 58.6212 52.7149 59.3334 51.7334 59.3334H12.2668C11.2853 59.3334 10.4489 58.6212 10.2924 57.6523L4.69236 22.9856C4.59888 22.407 4.76396 21.8164 5.14396 21.3701ZM9.01577 24.6667L13.9696 55.3334H50.0306L54.9844 24.6667H9.01577Z" fill="url(#paint0_linear_29_268)"/>
<path fill-rule="evenodd" clip-rule="evenodd" d="M15.3333 22.6667C15.3333 12.893 22.635 4.66669 31.9999 4.66669C41.3649 4.66669 48.6666 12.893 48.6666 22.6667C48.6666 23.7713 47.7712 24.6667 46.6666 24.6667C45.562 24.6667 44.6666 23.7713 44.6666 22.6667C44.6666 14.7674 38.8352 8.66669 31.9999 8.66669C25.1646 8.66669 19.3333 14.7674 19.3333 22.6667C19.3333 23.7713 18.4378 24.6667 17.3333 24.6667C16.2287 24.6667 15.3333 23.7713 15.3333 22.6667Z" fill="url(#paint1_linear_29_268)"/>
<path d="M22.6667 37.3333C24.1394 37.3333 25.3333 36.1394 25.3333 34.6667C25.3333 33.1939 24.1394 32 22.6667 32C21.1939 32 20 33.1939 20 34.6667C20 36.1394 21.1939 37.3333 22.6667 37.3333Z" fill="url(#paint2_linear_29_268)"/>
<path fill-rule="evenodd" clip-rule="evenodd" d="M25.6563 42.879C25.0409 41.9694 23.8058 41.7257 22.8906 42.3359C21.9715 42.9486 21.7232 44.1903 22.3359 45.1094L24 44C22.3359 45.1094 22.3364 45.1101 22.3369 45.1109L22.338 45.1126L22.3404 45.1161L22.346 45.1244L22.3602 45.1453L22.4013 45.2039C22.4343 45.2503 22.4785 45.311 22.5341 45.3839C22.6451 45.5296 22.802 45.7252 23.0051 45.9537C23.4101 46.4092 24.0071 47.0053 24.8 47.6C26.3916 48.7937 28.8023 50 32 50C35.1976 50 37.6083 48.7937 39.2 47.6C39.9928 47.0053 40.5899 46.4092 40.9948 45.9537C41.1979 45.7252 41.3548 45.5296 41.4658 45.3839C41.5214 45.311 41.5656 45.2503 41.5986 45.2039L41.6397 45.1453L41.654 45.1244L41.6595 45.1161L41.6619 45.1126L41.663 45.1109C41.6636 45.1101 41.6641 45.1094 40 44L41.6641 45.1094C42.2768 44.1903 42.0284 42.9486 41.1094 42.3359C40.1942 41.7257 38.959 41.9694 38.3436 42.879C38.3443 42.878 38.3447 42.8775 38.3447 42.8775L38.3446 42.8776L38.342 42.8814L38.3394 42.8853L38.3388 42.8858C38.3411 42.8827 38.3427 42.8804 38.3436 42.879C38.3414 42.8824 38.3391 42.8857 38.3368 42.8891L38.3378 42.8877L38.3388 42.8858C38.3301 42.8981 38.3119 42.9233 38.2841 42.9598C38.2284 43.0328 38.1353 43.1498 38.0051 43.2962C37.7434 43.5907 37.3405 43.9946 36.8 44.4C35.725 45.2062 34.1356 46 32 46C29.8643 46 28.275 45.2062 27.2 44.4C26.6595 43.9946 26.2565 43.5907 25.9948 43.2962C25.8646 43.1498 25.7715 43.0328 25.7158 42.9598C25.6881 42.9233 25.6698 42.8981 25.6611 42.8858C25.6589 42.8827 25.6573 42.8804 25.6563 42.879" fill="url(#paint3_linear_29_268)"/>
<path d="M41.3334 37.3333C42.8062 37.3333 44.0001 36.1394 44.0001 34.6667C44.0001 33.1939 42.8062 32 41.3334 32C39.8607 32 38.6667 33.1939 38.6667 34.6667C38.6667 36.1394 39.8607 37.3333 41.3334 37.3333Z" fill="url(#paint4_linear_29_268)"/>
<defs>
<linearGradient id="paint0_linear_29_268" x1="4.66675" y1="20.6667" x2="59.9915" y2="21.6323" gradientUnits="userSpaceOnUse">
<stop stop-color="#73E0A9"/>
<stop offset="1" stop-color="#5B68DF"/>
</linearGradient>
<linearGradient id="paint1_linear_29_268" x1="15.3333" y1="4.66669" x2="49.0638" y2="5.36073" gradientUnits="userSpaceOnUse">
<stop stop-color="#73E0A9"/>
<stop offset="1" stop-color="#5B68DF"/>
</linearGradient>
<linearGradient id="paint2_linear_29_268" x1="20" y1="32" x2="25.3984" y2="32.0666" gradientUnits="userSpaceOnUse">
<stop stop-color="#73E0A9"/>
<stop offset="1" stop-color="#5B68DF"/>
</linearGradient>
<linearGradient id="paint3_linear_29_268" x1="21.9998" y1="41.9998" x2="42.2278" y2="42.6241" gradientUnits="userSpaceOnUse">
<stop stop-color="#73E0A9"/>
<stop offset="1" stop-color="#5B68DF"/>
</linearGradient>
<linearGradient id="paint4_linear_29_268" x1="38.6667" y1="32" x2="44.0651" y2="32.0666" gradientUnits="userSpaceOnUse">
<stop stop-color="#73E0A9"/>
<stop offset="1" stop-color="#5B68DF"/>
</linearGradient>
</defs>
</svg>
