<svg width="64" height="64" viewBox="0 0 64 64" fill="none" xmlns="http://www.w3.org/2000/svg">
<path fill-rule="evenodd" clip-rule="evenodd" d="M9.33329 19.3333C8.9651 19.3333 8.66663 19.6318 8.66663 20V49.3333C8.66663 49.7015 8.9651 50 9.33329 50H54.6666C55.0348 50 55.3333 49.7015 55.3333 49.3333V20C55.3333 19.6318 55.0348 19.3333 54.6666 19.3333H9.33329ZM4.66663 20C4.66663 17.4227 6.75596 15.3333 9.33329 15.3333H54.6666C57.2439 15.3333 59.3333 17.4227 59.3333 20V49.3333C59.3333 51.9106 57.2439 54 54.6666 54H9.33329C6.75596 54 4.66663 51.9106 4.66663 49.3333V20Z" fill="url(#paint0_linear_29_245)"/>
<path fill-rule="evenodd" clip-rule="evenodd" d="M31.3334 26.6667C31.3334 25.5621 32.2288 24.6667 33.3334 24.6667H57.3334C58.4379 24.6667 59.3334 25.5621 59.3334 26.6667V41.3334C59.3334 42.4379 58.4379 43.3334 57.3334 43.3334H33.3334C32.2288 43.3334 31.3334 42.4379 31.3334 41.3334V26.6667ZM35.3334 28.6667V39.3334H55.3334V28.6667H35.3334Z" fill="url(#paint1_linear_29_245)"/>
<path fill-rule="evenodd" clip-rule="evenodd" d="M57.3334 22C58.4379 22 59.3334 22.8954 59.3334 24V44C59.3334 45.1046 58.4379 46 57.3334 46C56.2288 46 55.3334 45.1046 55.3334 44V24C55.3334 22.8954 56.2288 22 57.3334 22Z" fill="url(#paint2_linear_29_245)"/>
<path fill-rule="evenodd" clip-rule="evenodd" d="M10.2695 10.2787C11.5556 8.57245 13.6526 7.33331 16.6666 7.33331H36C37.3573 7.33331 39.5056 7.76663 41.3547 9.28945C43.2891 10.8824 44.6666 13.4794 44.6666 17.3333C44.6666 18.4379 43.7712 19.3333 42.6666 19.3333C41.5621 19.3333 40.6666 18.4379 40.6666 17.3333C40.6666 14.5206 39.7109 13.1175 38.8119 12.3772C37.8277 11.5667 36.6426 11.3333 36 11.3333H16.6666C14.8807 11.3333 13.9776 12.0046 13.4637 12.6864C12.8772 13.4645 12.6666 14.4486 12.6666 15.0646V17.3333C12.6666 18.4379 11.7712 19.3333 10.6666 19.3333C9.56206 19.3333 8.66663 18.4379 8.66663 17.3333V15.0646C8.66663 13.7703 9.05601 11.8887 10.2695 10.2787Z" fill="url(#paint3_linear_29_245)"/>
<path d="M44.6666 36C45.7712 36 46.6666 35.1046 46.6666 34C46.6666 32.8954 45.7712 32 44.6666 32C43.5621 32 42.6666 32.8954 42.6666 34C42.6666 35.1046 43.5621 36 44.6666 36Z" fill="url(#paint4_linear_29_245)"/>
<defs>
<linearGradient id="paint0_linear_29_245" x1="4.66663" y1="15.3333" x2="59.9913" y2="16.299" gradientUnits="userSpaceOnUse">
<stop stop-color="#73E0A9"/>
<stop offset="1" stop-color="#5B68DF"/>
</linearGradient>
<linearGradient id="paint1_linear_29_245" x1="31.3334" y1="24.6667" x2="59.6693" y2="25.1914" gradientUnits="userSpaceOnUse">
<stop stop-color="#73E0A9"/>
<stop offset="1" stop-color="#5B68DF"/>
</linearGradient>
<linearGradient id="paint2_linear_29_245" x1="55.3334" y1="22" x2="59.3827" y2="22.0083" gradientUnits="userSpaceOnUse">
<stop stop-color="#73E0A9"/>
<stop offset="1" stop-color="#5B68DF"/>
</linearGradient>
<linearGradient id="paint3_linear_29_245" x1="8.66663" y1="7.33331" x2="45.0611" y2="8.68126" gradientUnits="userSpaceOnUse">
<stop stop-color="#73E0A9"/>
<stop offset="1" stop-color="#5B68DF"/>
</linearGradient>
<linearGradient id="paint4_linear_29_245" x1="42.6666" y1="32" x2="46.7154" y2="32.05" gradientUnits="userSpaceOnUse">
<stop stop-color="#73E0A9"/>
<stop offset="1" stop-color="#5B68DF"/>
</linearGradient>
</defs>
</svg>
